<svg xmlns="http://www.w3.org/2000/svg">

    <symbol id="icon-comments" viewBox="0 0 36 32">
        <path fill="#404040"
            d="M34 28.161c0 1.422 0.813 2.653 2 3.256v0.498c-0.332 0.045-0.671 0.070-1.016 0.070-2.125 0-4.042-0.892-5.398-2.321-0.819 0.218-1.688 0.336-2.587 0.336-4.971 0-9-3.582-9-8s4.029-8 9-8c4.971 0 9 3.582 9 8 0 1.73-0.618 3.331-1.667 4.64-0.213 0.463-0.333 0.979-0.333 1.522zM7.209 6.912c-2.069 1.681-3.209 3.843-3.209 6.088 0 1.259 0.35 2.481 1.039 3.63 0.711 1.185 1.781 2.268 3.093 3.133 0.949 0.625 1.587 1.623 1.755 2.747 0.056 0.375 0.091 0.753 0.105 1.129 0.233-0.194 0.461-0.401 0.684-0.624 0.755-0.755 1.774-1.172 2.828-1.172 0.168 0 0.336 0.011 0.505 0.032 0.655 0.083 1.323 0.125 1.987 0.126v4c-0.848-0-1.68-0.054-2.492-0.158-3.437 3.437-7.539 4.053-11.505 4.144v-0.841c2.142-1.049 4-2.961 4-5.145 0-0.305-0.024-0.604-0.068-0.897-3.619-2.383-5.932-6.024-5.932-10.103 0-7.18 7.163-13 16-13 8.702 0 15.781 5.644 15.995 12.672-1.284-0.572-2.683-0.919-4.133-1.018-0.36-1.752-1.419-3.401-3.070-4.742-1.104-0.897-2.404-1.606-3.863-2.108-1.553-0.534-3.211-0.804-4.928-0.804s-3.375 0.271-4.928 0.804c-1.46 0.502-2.76 1.211-3.863 2.108z">
        </path>
    </symbol>
    <symbol id="icon-downloads" viewBox="0 0 32 32">
        <path fill="#404040"
            d="M27.844 11.252c-0.101-4.022-3.389-7.252-7.433-7.252-2.369 0-4.477 1.109-5.839 2.835-0.764-0.987-1.959-1.624-3.303-1.624-2.307 0-4.176 1.871-4.176 4.179 0 0.201 0.015 0.399 0.043 0.592-0.351-0.063-0.711-0.098-1.080-0.098-3.344-0-6.054 2.712-6.054 6.058s2.71 6.058 6.054 6.058h2.868l7.078 7.328 7.078-7.328 3.484-0c3.004-0.006 5.438-2.444 5.438-5.451 0-2.565-1.771-4.716-4.156-5.296zM16 26l-6-6h4v-6h4v6h4l-6 6z">
        </path>
    </symbol>
    <symbol id="icon-views" viewBox="0 0 32 32">
        <path fill="#404040"
            d="M16 6c-6.979 0-13.028 4.064-16 10 2.972 5.936 9.021 10 16 10s13.027-4.064 16-10c-2.972-5.936-9.021-10-16-10zM23.889 11.303c1.88 1.199 3.473 2.805 4.67 4.697-1.197 1.891-2.79 3.498-4.67 4.697-2.362 1.507-5.090 2.303-7.889 2.303s-5.527-0.796-7.889-2.303c-1.88-1.199-3.473-2.805-4.67-4.697 1.197-1.891 2.79-3.498 4.67-4.697 0.122-0.078 0.246-0.154 0.371-0.228-0.311 0.854-0.482 1.776-0.482 2.737 0 4.418 3.582 8 8 8s8-3.582 8-8c0-0.962-0.17-1.883-0.482-2.737 0.124 0.074 0.248 0.15 0.371 0.228v0zM16 13c0 1.657-1.343 3-3 3s-3-1.343-3-3 1.343-3 3-3 3 1.343 3 3z">
        </path>
    </symbol>
    <symbol id="icon-likes" viewBox="0 0 32 32">
        <path fill="#404040"
            d="M23.6 2c-3.363 0-6.258 2.736-7.599 5.594-1.342-2.858-4.237-5.594-7.601-5.594-4.637 0-8.4 3.764-8.4 8.401 0 9.433 9.516 11.906 16.001 21.232 6.13-9.268 15.999-12.1 15.999-21.232 0-4.637-3.763-8.401-8.4-8.401z">
        </path>
    </symbol>
    <symbol id="icon-settings" viewBox="0 0 32 32">
        <path
            d="M29.181 19.070c-1.679-2.908-0.669-6.634 2.255-8.328l-3.145-5.447c-0.898 0.527-1.943 0.829-3.058 0.829-3.361 0-6.085-2.742-6.085-6.125h-6.289c0.008 1.044-0.252 2.103-0.811 3.070-1.679 2.908-5.411 3.897-8.339 2.211l-3.144 5.447c0.905 0.515 1.689 1.268 2.246 2.234 1.676 2.903 0.672 6.623-2.241 8.319l3.145 5.447c0.895-0.522 1.935-0.82 3.044-0.82 3.35 0 6.067 2.725 6.084 6.092h6.289c-0.003-1.034 0.259-2.080 0.811-3.038 1.676-2.903 5.399-3.894 8.325-2.219l3.145-5.447c-0.899-0.515-1.678-1.266-2.232-2.226zM16 22.479c-3.578 0-6.479-2.901-6.479-6.479s2.901-6.479 6.479-6.479c3.578 0 6.479 2.901 6.479 6.479s-2.901 6.479-6.479 6.479z">
        </path>
    </symbol>
    <symbol id="icon-enlarge" fill="#fff" fill-opacity="0.5" viewBox="0 0 32 32">
        <path d="M32 0h-13l5 5-6 6 3 3 6-6 5 5z"></path>
        <path d="M32 32v-13l-5 5-6-6-3 3 6 6-5 5z"></path>
        <path d="M0 32h13l-5-5 6-6-3-3-6 6-5-5z"></path>
        <path d="M0 0v13l5-5 6 6 3-3-6-6 5-5z"></path>
    </symbol>
    <symbol id="icon-back" viewBox="0 0 32 32">
        <path
            d="M19.414 27.414l10-10c0.781-0.781 0.781-2.047 0-2.828l-10-10c-0.781-0.781-2.047-0.781-2.828 0s-0.781 2.047 0 2.828l6.586 6.586h-19.172c-1.105 0-2 0.895-2 2s0.895 2 2 2h19.172l-6.586 6.586c-0.39 0.39-0.586 0.902-0.586 1.414s0.195 1.024 0.586 1.414c0.781 0.781 2.047 0.781 2.828 0z">
        </path>
    </symbol>
    <symbol id="icon-search" viewBox="0 0 32 32">
        <path fill="#404040"
            d="M31.008 27.231l-7.58-6.447c-0.784-0.705-1.622-1.029-2.299-0.998 1.789-2.096 2.87-4.815 2.87-7.787 0-6.627-5.373-12-12-12s-12 5.373-12 12 5.373 12 12 12c2.972 0 5.691-1.081 7.787-2.87-0.031 0.677 0.293 1.515 0.998 2.299l6.447 7.58c1.104 1.226 2.907 1.33 4.007 0.23s0.997-2.903-0.23-4.007zM12 20c-4.418 0-8-3.582-8-8s3.582-8 8-8 8 3.582 8 8-3.582 8-8 8z">
        </path>
    </symbol>
    <symbol id="icon-sun" viewBox="0 0 32 32">
        <path
            d="M16 26c1.105 0 2 0.895 2 2v2c0 1.105-0.895 2-2 2s-2-0.895-2-2v-2c0-1.105 0.895-2 2-2zM16 6c-1.105 0-2-0.895-2-2v-2c0-1.105 0.895-2 2-2s2 0.895 2 2v2c0 1.105-0.895 2-2 2zM30 14c1.105 0 2 0.895 2 2s-0.895 2-2 2h-2c-1.105 0-2-0.895-2-2s0.895-2 2-2h2zM6 16c0 1.105-0.895 2-2 2h-2c-1.105 0-2-0.895-2-2s0.895-2 2-2h2c1.105 0 2 0.895 2 2zM25.899 23.071l1.414 1.414c0.781 0.781 0.781 2.047 0 2.828s-2.047 0.781-2.828 0l-1.414-1.414c-0.781-0.781-0.781-2.047 0-2.828s2.047-0.781 2.828 0zM6.101 8.929l-1.414-1.414c-0.781-0.781-0.781-2.047 0-2.828s2.047-0.781 2.828 0l1.414 1.414c0.781 0.781 0.781 2.047 0 2.828s-2.047 0.781-2.828 0zM25.899 8.929c-0.781 0.781-2.047 0.781-2.828 0s-0.781-2.047 0-2.828l1.414-1.414c0.781-0.781 2.047-0.781 2.828 0s0.781 2.047 0 2.828l-1.414 1.414zM6.101 23.071c0.781-0.781 2.047-0.781 2.828 0s0.781 2.047 0 2.828l-1.414 1.414c-0.781 0.781-2.047 0.781-2.828 0s-0.781-2.047 0-2.828l1.414-1.414z">
        </path>
        <path
            d="M16 8c-4.418 0-8 3.582-8 8s3.582 8 8 8c4.418 0 8-3.582 8-8s-3.582-8-8-8zM16 21c-2.761 0-5-2.239-5-5s2.239-5 5-5 5 2.239 5 5-2.239 5-5 5z">
        </path>
    </symbol>
    <symbol id="icon-moon" viewBox="0 0 32 32">
        <path
            d="M16.166 1.101c-8.21 0-14.899 6.689-14.899 14.899s6.689 14.899 14.899 14.899c7.142 0 13.13-5.062 14.568-11.783-1.022 0.462-2.208 0.791-3.451 0.927l-0.052 0.005c-0.003 0.008-0.007 0.015-0.009 0.023-0.021 0.002-0.041 0.006-0.061 0.008-0.198 0.020-0.398 0.035-0.599 0.045s-0.404 0.015-0.608 0.015c-0.204 0-0.406-0.005-0.608-0.015s-0.401-0.025-0.599-0.045c-0.198-0.020-0.395-0.045-0.59-0.075s-0.389-0.064-0.581-0.103c-0.192-0.039-0.382-0.083-0.571-0.131s-0.375-0.101-0.559-0.158c-0.185-0.057-0.367-0.119-0.548-0.185s-0.359-0.136-0.535-0.21c-0.176-0.074-0.35-0.153-0.522-0.235s-0.341-0.169-0.508-0.26c-0.167-0.090-0.331-0.185-0.493-0.283s-0.321-0.2-0.478-0.306c-0.157-0.106-0.31-0.215-0.461-0.328s-0.299-0.229-0.445-0.349c-0.145-0.12-0.288-0.243-0.427-0.37s-0.275-0.256-0.408-0.389c-0.133-0.133-0.263-0.269-0.389-0.408s-0.25-0.282-0.37-0.427c-0.12-0.145-0.236-0.294-0.349-0.445s-0.222-0.305-0.328-0.461c-0.106-0.157-0.208-0.316-0.306-0.478s-0.193-0.326-0.283-0.493c-0.090-0.167-0.177-0.336-0.26-0.508s-0.161-0.346-0.235-0.522c-0.074-0.176-0.144-0.355-0.21-0.535s-0.127-0.363-0.185-0.548c-0.057-0.185-0.11-0.371-0.158-0.559s-0.092-0.379-0.131-0.571c-0.039-0.192-0.073-0.386-0.103-0.581s-0.055-0.392-0.075-0.59c-0.020-0.198-0.035-0.398-0.045-0.599s-0.015-0.404-0.015-0.608c0-0.204 0.005-0.406 0.015-0.608s0.025-0.401 0.045-0.599c0.020-0.198 0.045-0.395 0.075-0.59s0.064-0.389 0.103-0.581c0.039-0.192 0.083-0.382 0.131-0.571s0.101-0.375 0.158-0.559c0.057-0.185 0.119-0.367 0.185-0.548 0.002-0.005 0.004-0.010 0.006-0.015 0.014-0.002 0.028-0.004 0.042-0.005 0.455-1.214 1.053-2.264 1.79-3.199l-0.019 0.025c-0.014-0-0.028-0.001-0.042-0.001 0-0 0-0 0-0-0.144-0.006-0.32-0.011-0.496-0.012l-0.006-0zM11.388 5.232c-0.010 0.045-0.022 0.090-0.031 0.135-0.050 0.242-0.094 0.486-0.131 0.733s-0.069 0.494-0.095 0.744c-0.025 0.25-0.045 0.502-0.058 0.755s-0.019 0.508-0.019 0.765c0 0.257 0.007 0.512 0.019 0.765s0.032 0.505 0.058 0.755c0.025 0.25 0.057 0.498 0.095 0.744s0.082 0.491 0.131 0.733c0.050 0.242 0.105 0.482 0.167 0.72s0.128 0.473 0.201 0.706c0.073 0.233 0.151 0.464 0.235 0.692s0.173 0.454 0.267 0.676c0.094 0.223 0.194 0.443 0.299 0.66s0.215 0.431 0.33 0.642c0.115 0.211 0.235 0.419 0.359 0.624s0.254 0.406 0.388 0.605c0.134 0.198 0.273 0.393 0.416 0.584s0.291 0.379 0.443 0.563c0.152 0.184 0.308 0.364 0.469 0.541s0.325 0.349 0.494 0.518c0.169 0.169 0.341 0.333 0.518 0.494s0.357 0.317 0.541 0.469c0.184 0.152 0.372 0.3 0.563 0.443s0.386 0.282 0.584 0.416c0.198 0.134 0.4 0.264 0.605 0.388s0.413 0.244 0.624 0.359c0.211 0.115 0.425 0.225 0.642 0.33s0.437 0.205 0.66 0.299c0.223 0.094 0.448 0.184 0.676 0.267s0.459 0.162 0.692 0.235c0.233 0.073 0.469 0.14 0.706 0.201s0.478 0.117 0.72 0.167c0.242 0.050 0.486 0.094 0.733 0.131s0.494 0.069 0.744 0.095c0.25 0.026 0.502 0.045 0.755 0.058 0.087 0.004 0.175 0.004 0.262 0.007-2.152 2.755-5.503 4.523-9.284 4.523-6.521 0-11.774-5.253-11.774-11.774 0-4.818 2.869-8.942 6.996-10.768z">
        </path>
        <path
            d="M20.928 3.999c-0.17 1.037-0.565 1.706-1.128 2.209s-1.324 0.839-2.235 1.065v1.213c0.911 0.226 1.672 0.562 2.235 1.065s0.957 1.172 1.128 2.209h1.234c0.17-1.037 0.565-1.706 1.128-2.209s1.324-0.839 2.235-1.065v-1.213c-0.911-0.226-1.672-0.562-2.235-1.065s-0.957-1.172-1.128-2.209zM21.544 6.002c0.249 0.44 0.556 0.82 0.911 1.137 0.331 0.296 0.698 0.539 1.091 0.74-0.392 0.201-0.759 0.443-1.091 0.74-0.355 0.317-0.662 0.697-0.911 1.137-0.249-0.44-0.556-0.82-0.911-1.137-0.331-0.296-0.698-0.539-1.091-0.74 0.392-0.201 0.759-0.444 1.091-0.74 0.355-0.317 0.662-0.697 0.911-1.137z">
        </path>
        <path
            d="M26.412 9.965c-0.095 0.575-0.314 0.947-0.626 1.226s-0.735 0.466-1.241 0.591v0.673c0.506 0.126 0.928 0.312 1.241 0.591s0.532 0.651 0.626 1.226h0.685c0.095-0.575 0.314-0.947 0.626-1.226s0.735-0.466 1.241-0.591v-0.673c-0.506-0.126-0.928-0.312-1.241-0.591s-0.532-0.651-0.626-1.226zM26.755 11.078c0.138 0.244 0.309 0.455 0.506 0.631 0.184 0.164 0.388 0.299 0.606 0.411-0.218 0.112-0.422 0.246-0.606 0.411-0.197 0.176-0.368 0.387-0.506 0.631-0.138-0.244-0.309-0.455-0.506-0.631-0.184-0.164-0.388-0.299-0.606-0.411 0.218-0.112 0.422-0.246 0.606-0.411 0.197-0.176 0.368-0.387 0.506-0.631z">
        </path>
    </symbol>
    <symbol id="icon-checked" viewBox="0 0 32 32">
        <path d="M27 4l-15 15-7-7-5 5 12 12 20-20z"></path>
    </symbol>

</svg>